<svg width="700px" height="700px" viewBox="0 0 700 700" version="1.1" xmlns="http://www.w3.org/2000/svg">
  <g stroke="none" stroke-width="1" fill="none" fill-rule="evenodd">
    <path d="M350,150 C250,150 170,230 170,330 C170,430 250,510 350,510 C450,510 530,430 530,330 C530,230 450,150 350,150 Z 
          M250,240 C280,240 300,260 300,290 C300,320 280,340 250,340 C220,340 200,320 200,290 C200,260 220,240 250,240 Z 
          M450,240 C480,240 500,260 500,290 C500,320 480,340 450,340 C420,340 400,320 400,290 C400,260 420,240 450,240 Z 
          M350,370 C375,370 395,390 395,415 C395,440 375,460 350,460 C325,460 305,440 305,415 C305,390 325,370 350,370 Z" 
          fill="#000000" fill-rule="nonzero"></path>
  </g>
</svg>